<svg width="107" height="107" viewBox="0 0 107 107" fill="none" xmlns="http://www.w3.org/2000/svg">
<rect x="0.5" y="0.5" width="106" height="106" rx="9.5" fill="white" stroke="#D7D7D7"/>
<path d="M50.2709 82.5C47.0366 82.5 44.1073 81.6679 41.483 80.0036C38.8771 78.3209 36.8072 75.8522 35.2732 72.5977C33.7577 69.3246 33 65.3119 33 60.5596C33 55.6778 33.7855 51.6188 35.3564 48.3828C36.9273 45.1282 39.0157 42.6966 41.6216 41.0878C44.2459 39.4605 47.1198 38.6469 50.2432 38.6469C52.6273 38.6469 54.614 39.0537 56.2034 39.8673C57.8113 40.6625 59.105 41.661 60.0845 42.863C61.0825 44.0465 61.8402 45.2114 62.3577 46.3579H62.7181V25H74.5V81.8066H62.8567V74.9831H62.3577C61.8033 76.1666 61.0178 77.3408 60.0013 78.5058C59.0033 79.6523 57.7004 80.6046 56.0925 81.3628C54.5031 82.1209 52.5626 82.5 50.2709 82.5ZM54.0134 73.097C55.9169 73.097 57.5248 72.5792 58.837 71.5437C60.1677 70.4896 61.1841 69.0195 61.8864 67.1334C62.6072 65.2472 62.9676 63.0375 62.9676 60.5041C62.9676 57.9707 62.6165 55.7702 61.9142 53.9026C61.2119 52.0349 60.1954 50.5925 58.8647 49.5755C57.5341 48.5584 55.9169 48.0499 54.0134 48.0499C52.0728 48.0499 50.4372 48.5769 49.1065 49.631C47.7759 50.685 46.7686 52.1458 46.0848 54.0135C45.401 55.8812 45.0591 58.0447 45.0591 60.5041C45.0591 62.982 45.401 65.1733 46.0848 67.0779C46.7871 68.9641 47.7944 70.4434 49.1065 71.5159C50.4372 72.5699 52.0728 73.097 54.0134 73.097Z" fill="black"/>
</svg>
